# xmcd
#
# Track frame offsets: 
#        182
#        16470
#        31252
#        43002
#        51045
#        64807
#        85057
#        94632
#        105445
#        132225
#        146462
#        157800
#
# Disc length: 2266 seconds
#
# Revision: 7
# Processed by: cddbd v1.5.2PL0 Copyright (c) Steve Scherf et al.
# Submitted via: ExactAudioCopy v0.99pb5
#
DISCID=8e08d80c
DTITLE=John Mayall and The Bluesbreakers - Blues Breakers with Eric Clap
DTITLE=ton
DYEAR=1966
DGENRE=Blues
TTITLE0=All Your Love
TTITLE1=Hideaway
TTITLE2=Little Girl
TTITLE3=Another Man
TTITLE4=Double Crossin' Time
TTITLE5=What'd I Say
TTITLE6=Key To Love
TTITLE7=Parchman Farm
TTITLE8=Have You Heard
TTITLE9=Ramblin' On My Mind
TTITLE10=Steppin' Out
TTITLE11=It Ain't Right
EXTD=John MAYALL, Eric CLAPTON, John McVIE, Hughie FLINT, John ALMOND,
EXTD=Alan SKIDMORE, Dennis HEALEY.
EXTT0=RUSH.
EXTT1=KING, THOMPSON.
EXTT2=John MAYALL.
EXTT3=Arr. John MAYALL.
EXTT4=John MAYALL-Eric CLAPTON.
EXTT5=CHARLES.
EXTT6=John MAYALL.
EXTT7=ALLISON.
EXTT8=John MAYALL.
EXTT9=Trad., Arr. John MAYALL.
EXTT10=BRACKEN.
EXTT11=JACOBS.
PLAYORDER=
